<svg xmlns="http://www.w3.org/2000/svg" width="430" height="430" style="width:100%;height:100%;transform:translate3d(0,0,0);content-visibility:visible" viewBox="0 0 430 430"><defs><clipPath id="c"><path d="M0 0h430v430H0z"/></clipPath><clipPath id="g"><path d="M0 0h430v430H0z"/></clipPath><clipPath id="f"><path d="M0 0h430v430H0z"/></clipPath><clipPath id="d"><path d="M0 0h430v430H0z"/></clipPath><path id="a" style="display:none"/><path id="b" style="display:none"/><mask id="h" mask-type="alpha"><use xmlns:ns1="http://www.w3.org/1999/xlink" ns1:href="#a"/></mask><mask id="e" mask-type="alpha"><use xmlns:ns2="http://www.w3.org/1999/xlink" ns2:href="#b"/></mask></defs><g clip-path="url(#c)"><g clip-path="url(#d)" style="display:none"><path class="secondary" style="display:none"/><path class="secondary" style="mix-blend-mode:multiply;display:none"/><path fill="none" class="primary" style="display:none"/><path class="secondary" style="display:none"/><g mask="url(#e)" style="mix-blend-mode:multiply;display:none"><path class="secondary"/></g><path fill="none" class="primary" style="display:none"/><path class="secondary" style="display:none"/><path class="secondary" style="mix-blend-mode:multiply;display:none"/><path fill="none" class="primary" style="display:none"/></g><g clip-path="url(#f)" style="display:block"><path fill="#4BB3FD" d="M70.541 0c0-54.609-24.282-85.026-70.541-85.026S-70.541-54.609-70.541 0c0 54.609 24.282 90.526 70.541 90.526S70.541 54.609 70.541 0zM157 0c0 88.824-59.041 165-157 165S-157 88.824-157 0-97.959-165 0-165 157-88.824 157 0z" class="secondary" style="display:block" transform="translate(215 215)"/><g opacity=".5" style="mix-blend-mode:multiply;display:block"><path fill="#4BB3FD" d="M215 380c5.98 0 11.815-.284 17.5-.837C145.053 370.653 93 298.402 93 215c0-83.402 52.053-155.653 139.5-164.163A180.704 180.704 0 0 0 215 50c-97.959 0-157 76.176-157 165s59.041 165 157 165z" class="secondary" opacity="1"/></g><path fill="none" stroke="#121331" stroke-width="7" d="M70.541 0c0 54.609-24.282 90.526-70.541 90.526S-70.541 54.609-70.541 0c0-54.609 24.282-85.026 70.541-85.026S70.541-54.609 70.541 0zM157 0c0 88.824-59.041 165-157 165S-157 88.824-157 0-97.959-165 0-165 157-88.824 157 0z" class="primary" style="display:block" transform="translate(215 215)"/></g><g clip-path="url(#g)" style="display:none"><path class="secondary" style="display:none"/><g mask="url(#h)" style="mix-blend-mode:multiply;display:none"><path class="secondary"/></g><path fill="none" class="primary" style="display:none"/><path class="secondary" style="display:none"/><path class="secondary" style="mix-blend-mode:multiply;display:none"/><path fill="none" class="primary" style="display:none"/></g></g></svg>